<?xml version="1.0" standalone="no"?>
<!DOCTYPE svg PUBLIC "-//W3C//DTD SVG 20010904//EN"
 "http://www.w3.org/TR/2001/REC-SVG-20010904/DTD/svg10.dtd">
<svg version="1.0" xmlns="http://www.w3.org/2000/svg"
 width="150.000000pt" height="150.000000pt" viewBox="0 0 150.000000 150.000000"
 preserveAspectRatio="xMidYMid meet">
<g transform="translate(0.000000,150.000000) scale(0.100000,-0.100000)"
fill="#000000" stroke="none">
<path d="M602 1330 c-97 -26 -183 -73 -256 -140 -56 -52 -136 -160 -136 -184
0 -7 30 -11 85 -11 l85 -1 150 -149 150 -150 0 -185 0 -186 -65 -64 c-36 -35
-65 -68 -65 -71 0 -12 136 -39 197 -39 189 1 390 105 494 257 l30 43 -101 0
-102 0 -41 -35 c-45 -39 -123 -79 -175 -90 l-32 -7 2 179 3 178 215 2 c118 1
220 2 227 2 8 1 11 24 10 74 l-2 72 -255 2 -255 3 -135 135 -135 136 25 19
c80 62 259 82 372 42 58 -21 133 -67 157 -96 11 -13 35 -16 118 -16 l104 0
-30 43 c-137 200 -404 298 -639 237z"/>
<path d="M157 824 c-12 -12 -7 -125 8 -199 22 -106 76 -206 156 -289 l68 -71
57 57 57 57 -60 65 c-33 35 -72 88 -86 118 -29 61 -50 161 -45 221 l3 42 -75
3 c-42 1 -79 0 -83 -4z"/>
</g>
</svg>
