<svg xmlns="http://www.w3.org/2000/svg" viewBox="0 0 1024 1024"><path fill="#010100" d="M0 0h1024v1024H0Z"/><path fill="#fcfcfd" d="M547 249h48l24 2 38 6 25 6 36 12 5 2-3 1-26-4-23-2h-35l-30 2-30 5-21 5-26 8-24 9-28 13-21 12-15 10-16 12-12 11-8 7-11 12-13 18-11 19-8 21-5 23v25l2 16 5 18 6 15 10 18 12 16 11 12 7 7 14 11 15 10 18 10 19 8 16 6 23 6 18 3 10 1v2h-55l-34-5-24-6-21-7-25-11-18-10-18-12-14-11-11-11-7-6-9-11-10-13-11-19-7-16-6-20-3-16v-29l3-18 7-21 10-19 11-15 12-14 15-15 11-9 15-12 12-8 19-12 29-15 33-13 19-6 28-7 30-5Z"/><path fill="#fcfcfd" d="m259 425 1 2-2 5-3 17v32l4 22 7 21 8 17 11 18 10 13 12 14 14 13 17 13 15 10 18 10 19 9 24 9 25 7 13 3 17 3 29 3h36l31-3 31-5 18-4 24-7 24-8 29-12 31-15 24-14 23-16 9-7v3l-11 16-13 16-11 12-7 8-13 12-11 10-14 11-16 12-19 12-17 10-26 13-25 10-22 7-22 5-22 4-23 2h-29l-21-1-18-3-23-5-17-5-25-10-16-8-13-7-15-10-12-9-14-12-15-15-9-11-11-15-12-21-8-18-7-21-4-20-2-13v-34l3-18 4-17 8-22 8-17Z"/><path fill="#fcfcfc" d="M660 284h28l32 3 23 4 19 5 2 2-10 11-7 8-12 14-9 10-9 11-13 14-4 5-6-1-16-7-19-6-27-6-26-3h-38l-5 1-20 2-25 5-21 6-17 6-25 11-17 10-15 10-13 10-12 11-5 6v-3l7-11 10-13 12-14 10-10 8-7 15-12 17-12 20-12 23-12 20-9 24-9 13-4 25-6 15-3 30-4Z"/></svg>